<?xml version="1.0" encoding="UTF-8" standalone="no"?>
<!-- Created with Inkscape (http://www.inkscape.org/) -->
<svg
   xmlns:dc="http://purl.org/dc/elements/1.1/"
   xmlns:cc="http://creativecommons.org/ns#"
   xmlns:rdf="http://www.w3.org/1999/02/22-rdf-syntax-ns#"
   xmlns:svg="http://www.w3.org/2000/svg"
   xmlns="http://www.w3.org/2000/svg"
   xmlns:sodipodi="http://sodipodi.sourceforge.net/DTD/sodipodi-0.dtd"
   xmlns:inkscape="http://www.inkscape.org/namespaces/inkscape"
   width="744.09448819"
   height="1052.3622047"
   id="svg2"
   sodipodi:version="0.32"
   inkscape:version="0.46"
   sodipodi:docname="shapes.svg"
   inkscape:output_extension="org.inkscape.output.svg.inkscape">
  <defs
     id="defs4">
    <inkscape:perspective
       sodipodi:type="inkscape:persp3d"
       inkscape:vp_x="0 : 526.18109 : 1"
       inkscape:vp_y="0 : 1000 : 0"
       inkscape:vp_z="744.09448 : 526.18109 : 1"
       inkscape:persp3d-origin="372.04724 : 350.78739 : 1"
       id="perspective10" />
  </defs>
  <sodipodi:namedview
     id="base"
     pagecolor="#ffffff"
     bordercolor="#666666"
     borderopacity="1.0"
     gridtolerance="10000"
     guidetolerance="10"
     objecttolerance="10"
     inkscape:pageopacity="0.0"
     inkscape:pageshadow="2"
     inkscape:zoom="0.7"
     inkscape:cx="293.18804"
     inkscape:cy="752.13668"
     inkscape:document-units="px"
     inkscape:current-layer="layer1"
     showgrid="false"
     inkscape:window-width="1024"
     inkscape:window-height="722"
     inkscape:window-x="0"
     inkscape:window-y="25" />
  <metadata
     id="metadata7">
    <rdf:RDF>
      <cc:Work
         rdf:about="">
        <dc:format>image/svg+xml</dc:format>
        <dc:type
           rdf:resource="http://purl.org/dc/dcmitype/StillImage" />
      </cc:Work>
    </rdf:RDF>
  </metadata>
  <g
     inkscape:label="Layer 1"
     inkscape:groupmode="layer"
     id="layer1">
    <path
       style="opacity:1;fill:none;fill-opacity:1;stroke:#000000;stroke-width:0.49302232;stroke-miterlimit:4;stroke-dasharray:none;stroke-dashoffset:0;stroke-opacity:1"
       d="M 250.70114,140.67955 C 232.03954,140.67955 216.8983,155.19633 216.8983,173.08036 C 216.8983,190.9644 232.03954,205.48117 250.70114,205.48117 C 264.09391,205.48117 275.67289,197.99401 281.14527,187.16231 L 281.48422,187.16231 L 423.96767,187.16231 L 424.59936,187.16231 C 430.08289,197.99393 441.68505,205.48117 455.10511,205.48117 C 473.80475,205.48117 488.96957,190.96425 488.96958,173.08036 C 488.96958,155.19647 473.80475,140.67956 455.10511,140.67955 C 441.67749,140.67956 430.06367,148.15691 424.58395,158.99841 L 423.96767,158.99841 L 281.48422,158.99841 L 281.16068,158.99841 C 275.6921,148.15684 264.10145,140.67956 250.70114,140.67955 z"
       id="path2387" />
    <path
       style="fill:none;fill-rule:evenodd;stroke:#000000;stroke-width:0.41604885px;stroke-linecap:butt;stroke-linejoin:miter;stroke-opacity:1"
       d="M 377.54794,217.25829 L 311.15543,251.59713 L 262.18222,251.59713 L 262.18222,295.80495 L 311.84081,295.80495 L 311.84081,295.64809 L 377.15998,329.42485 L 447.50965,282.82494 L 438.03055,282.78573 C 437.99396,285.67064 435.57606,288.00127 432.59914,288.00127 C 429.60398,288.00127 427.17511,285.64283 427.16774,282.73345 L 426.97375,282.73345 C 426.68907,287.33366 423.08981,290.9685 418.68439,290.9685 C 414.25349,290.9685 410.62969,287.29297 410.3821,282.65502 L 410.03293,282.65502 C 409.80985,288.72388 404.87906,293.5828 398.82095,293.58279 C 392.7284,293.58279 387.76683,288.66748 387.59605,282.55045 L 387.19515,282.53738 C 387.20346,282.73226 387.20808,282.92867 387.20808,283.12559 C 387.20808,290.54722 381.25644,296.5631 373.91407,296.5631 C 366.57168,296.5631 360.6071,290.54722 360.60712,283.12559 C 360.60712,282.88923 360.60809,282.65311 360.62004,282.41973 L 360.14156,282.41973 C 359.94761,291.8156 352.36141,299.97475 343.0197,299.97476 C 333.62571,299.97476 325.98373,291.73169 325.87195,282.26287 L 326.25991,264.42028 C 326.37167,254.95145 334.01367,246.69531 343.40766,246.69531 C 352.74936,246.69531 360.33556,254.86755 360.52952,264.26341 L 361.008,264.26341 C 360.99604,264.03003 360.99507,263.79391 360.99507,263.55756 C 360.99506,256.13593 366.95964,250.12006 374.30202,250.12006 C 381.64439,250.12006 387.59605,256.13593 387.59605,263.55756 C 387.59603,263.75449 387.59141,263.95089 387.58311,264.14577 L 387.984,264.1327 C 388.15479,258.01567 393.11637,253.10036 399.20891,253.10036 C 405.26702,253.10036 410.19781,257.95928 410.42089,264.02813 L 410.77005,264.02813 C 411.01765,259.39019 414.64145,255.71465 419.07235,255.71465 C 423.47777,255.71465 427.07703,259.34948 427.36172,263.94969 L 427.5557,263.94969 C 427.56307,261.04032 429.99193,258.68188 432.9871,258.68188 C 435.96402,258.68188 438.38192,261.0125 438.41851,263.89741 L 447.89761,263.8582 L 377.54794,217.25829 z"
       id="path3167"
       sodipodi:nodetypes="cccccccccsccsccsccsssccsccsccsssccsccsccsccc" />
    <path
       style="opacity:1;fill:none;fill-opacity:1;stroke:#000000;stroke-width:0.49751544;stroke-miterlimit:4;stroke-dasharray:none;stroke-dashoffset:0;stroke-opacity:1"
       d="M 376.67399,346.01446 C 352.53403,346.01446 332.27876,362.73062 326.84471,385.20934 L 300.78734,385.20934 L 300.78734,410.84694 L 327.21784,410.84694 C 333.17596,432.56208 353.07629,448.53372 376.67399,448.53373 C 399.34885,448.53373 418.58282,433.78528 425.33722,413.36561 L 397.30533,413.36561 C 392.46497,419.19355 385.13084,422.91169 376.92275,422.91169 C 362.35837,422.91168 350.53888,411.20225 350.53888,396.77658 C 350.53889,382.35091 362.35837,370.64147 376.92275,370.64147 C 385.36252,370.64147 392.87881,374.57149 397.70956,380.68506 L 425.18174,380.68506 C 418.28195,360.52232 399.16534,346.01445 376.67399,346.01446 z"
       id="path3194" />
    <path
       style="fill:none;fill-rule:evenodd;stroke:#000000;stroke-width:1.41763139px;stroke-linecap:butt;stroke-linejoin:miter;stroke-opacity:1"
       d="M 112.85847,334.91468 C 113.19968,330.29499 113.0992,305.79019 107.7955,300.48649 C 103.6917,296.38269 97.95788,296.0019 91.594,294.41092 C 83.54095,292.39766 80.78869,290.01439 77.41769,283.2724 C 73.69293,275.82288 70.69271,268.3697 73.36732,263.02052 C 76.39052,256.97411 85.38644,260.96234 89.56882,262.00792 C 93.07013,262.88326 96.72591,268.11796 100.70735,270.10868 C 106.05923,272.78462 107.89593,273.8808 114.88366,272.13387 C 121.3296,270.52237 121.6388,259.28964 122.98442,253.90717 C 124.37405,248.34864 119.94663,240.71526 119.94663,235.68048 C 119.94663,229.66194 116.12291,224.99527 113.87106,220.49158 C 111.45516,215.65979 114.34339,211.44619 115.89626,208.34046 C 118.43973,203.2535 126.5697,206.08272 129.05997,207.32786 C 133.37615,209.48594 134.43824,219.03032 135.13553,222.51677 C 136.11467,227.41247 135.95155,230.84377 137.16073,235.68048 C 138.37872,240.55246 138.25109,247.20787 139.18591,251.88198 C 140.36835,257.79417 139.963,261.06595 141.2111,266.0583 C 142.25829,270.24707 147.0614,253.79563 147.28666,252.89458 C 149.33148,244.71533 151.69743,236.91629 153.36223,228.59233 C 155.1557,219.62493 157.79702,212.49389 159.43779,204.29007 C 160.60219,198.4681 169.5326,201.75081 171.58891,202.26488 C 175.75771,203.30708 175.63928,212.93436 175.63928,216.4412 C 175.63928,220.92076 172.04498,227.95846 170.57631,231.63011 C 168.91421,235.78537 167.83491,240.57053 166.52594,245.80643 C 164.62447,253.4123 162.9545,258.60065 161.46297,266.0583 C 159.7359,274.69368 162.05633,271.95974 164.50076,267.0709 C 166.76522,262.54196 170.6833,257.85058 174.6267,253.90717 C 178.70486,249.82903 181.0536,245.45508 184.75263,241.75605 C 189.55915,236.94953 191.04916,234.6679 197.91636,234.6679 C 205.64437,234.6679 199.76527,247.17156 198.92894,248.84421 C 196.72685,253.24839 192.4595,257.33886 189.8156,259.98274 C 186.39294,263.4054 183.15245,270.27127 181.71486,273.14645 C 179.75139,277.07338 178.13556,279.76353 175.63928,282.2598 C 172.58281,285.31628 182.70876,277.21552 185.76523,274.15905 C 189.81719,270.10709 194.50254,266.24632 198.92894,264.03311 C 203.46746,261.76387 199.80087,274.51074 197.91636,279.22202 C 195.53037,285.18699 190.54222,287.7904 185.76523,291.37315 C 184.4151,292.38574 183.06498,293.39834 181.71486,294.41092 C 176.87817,298.03844 172.93894,300.48657 167.53854,304.53687 C 162.47337,308.33573 159.48284,313.56012 157.4126,317.70058 C 155.40369,321.71842 152.42218,325.02955 150.32444,327.82652 C 149.06472,329.50616 148.55591,333.38878 147.28666,335.92728"
       id="path3207"
       sodipodi:nodetypes="cssssssssssssssssssssssssssssssssssssssssc" />
  </g>
</svg>
