# Blender3D v246 OBJ File: shapes.blend
# www.blender3d.org
o Cube.004_Mesh.007
v 2.431180 0.377872 -1.098405
v 0.544461 0.377873 -0.655812
v 0.698778 0.377873 -0.655812
v 0.721765 0.377873 -0.655812
v 0.544461 0.217154 -0.655812
v 2.431180 0.377873 1.257580
v 0.544461 0.377873 0.574648
v 0.687195 0.377873 0.730431
v 0.544461 0.217154 0.850817
v 0.437294 0.377873 0.850817
v 0.544461 0.377873 0.850817
v 0.721765 0.217154 -0.655812
v 0.721765 0.377873 -0.630424
v 0.559709 0.377873 -0.471153
v 0.567448 0.377873 -0.471153
v 0.075196 0.377873 1.257579
v 0.359802 0.377873 0.850817
v 0.359802 0.377873 -0.471153
v 0.359802 0.217154 -0.471153
v 0.359802 0.377873 -0.631872
v 0.721765 0.377873 -0.476002
v 0.721765 0.377873 -0.495094
v 0.383743 0.377873 0.850817
v 0.544461 0.217154 -0.471153
v 0.544461 0.377873 -0.471153
v 0.721765 0.377873 -0.471153
v 0.687195 0.377873 0.850817
v 0.359802 0.377873 0.730431
v 2.431180 -0.361340 1.257579
v 0.075196 -0.361340 1.257579
v 0.075197 -0.361340 -1.098405
v 2.431181 -0.361340 -1.098404
v 0.075197 0.377872 -1.098405
v 0.359802 0.217154 -0.655812
v 0.721765 0.217154 -0.471153
v 0.544461 0.217154 0.730431
v 0.359802 0.217154 0.730431
v 0.359802 0.217154 0.850817
v 0.687195 0.217154 0.730431
v 0.687195 0.217154 0.850817
v 0.359802 0.377873 -0.655812
v 0.544461 0.377873 0.730431
v 1.477442 0.259435 0.079587
v 1.231960 0.013953 0.426751
v 0.986478 -0.231529 0.079587
v 1.231960 0.013953 -0.267577
v 1.130278 0.606600 0.079587
v 0.884795 0.361117 0.426751
v 0.639314 0.115635 0.079587
v 0.884796 0.361117 -0.267577
v 1.388429 0.557589 0.888252
v 1.388429 0.510706 1.032543
v 1.590618 0.387965 1.004986
v 1.513389 0.510706 0.960398
v 1.513389 0.510706 0.816107
v 1.590618 0.387965 0.771519
v 1.388429 0.387965 0.654785
v 1.388429 0.510706 0.743962
v 1.263470 0.510706 0.816107
v 1.186241 0.387965 0.771519
v 1.186241 0.387965 1.004986
v 1.263470 0.510706 0.960398
v 1.388429 0.387965 1.121720
v 1.388429 0.557589 -0.729683
v 1.388430 0.510706 -0.585392
v 1.590618 0.387964 -0.612949
v 1.513389 0.510706 -0.657538
v 1.513389 0.510706 -0.801828
v 1.590618 0.387964 -0.846416
v 1.388430 0.387964 -0.963150
v 1.388430 0.510706 -0.873974
v 1.263470 0.510706 -0.801828
v 1.186241 0.387964 -0.846417
v 1.186241 0.387964 -0.612949
v 1.263470 0.510706 -0.657538
v 1.388429 0.387964 -0.496216
vt 0.653440 1.000000
vt 0.409988 0.574938
vt 0.435225 0.600671
vt 0.438984 0.604504
vt 0.351689 0.570758
vt 1.000000 0.412098
vt 0.590985 0.267895
vt 0.637244 0.252823
vt 0.573311 0.194800
vt 0.614083 0.181110
vt 0.631609 0.198980
vt 0.380686 0.600324
vt 0.442719 0.598169
vt 0.439644 0.531402
vt 0.440910 0.532692
vt 0.614699 0.019227
vt 0.601410 0.168188
vt 0.406951 0.498066
vt 0.348653 0.493886
vt 0.383310 0.538171
vt 0.465434 0.559635
vt 0.462626 0.564399
vt 0.605325 0.172180
vt 0.378852 0.524679
vt 0.437151 0.528859
vt 0.466147 0.558425
vt 0.654952 0.222782
vt 0.583701 0.198228
vt 0.731861 0.392872
vt 0.346560 0.000000
vt 0.000000 0.587902
vt 0.385301 0.980773
vt 0.268139 0.607129
vt 0.321490 0.539965
vt 0.407849 0.554245
vt 0.555602 0.224841
vt 0.525403 0.194048
vt 0.543112 0.164007
vt 0.578945 0.248642
vt 0.596654 0.218602
vt 0.379788 0.544145
vt 0.613901 0.229021
vt 0.627783 0.543928
vt 0.549658 0.409978
vt 0.369399 0.449288
vt 0.447524 0.583238
vt 0.696936 0.495067
vt 0.516677 0.534376
vt 0.438553 0.400426
vt 0.618811 0.361117
vt 0.813143 0.272379
vt 0.829038 0.335224
vt 0.854372 0.336665
vt 0.844548 0.297824
vt 0.840329 0.335049
vt 0.833147 0.372670
vt 0.794696 0.393482
vt 0.744458 0.388896
vt 0.802098 0.369835
vt 0.792275 0.330995
vt 0.728563 0.326051
vt 0.762905 0.267792
vt 0.813500 0.294989
vt 0.575149 0.676111
vt 0.591044 0.738956
vt 0.616377 0.740397
vt 0.606554 0.701556
vt 0.602335 0.738782
vt 0.595152 0.776403
vt 0.556701 0.797215
vt 0.506464 0.792628
vt 0.564104 0.773568
vt 0.554280 0.734727
vt 0.490569 0.729783
vt 0.524911 0.671525
vt 0.575505 0.698722
vn 0.000000 1.000000 -0.000000
vn 0.000000 0.000000 1.000000
vn 0.000000 0.000000 -1.000000
vn -1.000000 0.000000 0.000000
vn 1.000000 0.000000 0.000000
vn 0.000000 0.000000 0.000000
vn -0.000000 -1.000000 0.000000
vn 0.000000 -0.000001 -1.000000
vn 1.000000 0.000001 0.000000
vn -0.000001 -0.000000 -1.000000
vn 1.000000 0.000001 -0.000001
vn 0.000000 0.000001 -1.000000
vn 0.707107 -0.707107 -0.000000
vn -0.707107 0.707107 -0.000000
vn 0.500000 0.500000 0.707107
vn -0.500000 -0.500000 0.707107
vn -0.500000 -0.500000 -0.707107
vn 0.500000 0.500000 -0.707107
vn 0.423197 0.532555 0.733000
vn 0.175638 0.936272 0.304213
vn 0.351274 0.936273 0.000000
vn 0.846396 0.532554 -0.000000
vn 0.423197 0.532554 -0.733000
vn 0.175637 0.936273 -0.304213
vn -0.175638 0.936272 -0.304213
vn -0.423198 0.532555 -0.733000
vn -0.846394 0.532557 -0.000000
vn -0.351276 0.936272 0.000000
vn -0.175638 0.936272 0.304213
vn -0.423198 0.532555 0.732999
vn 0.423198 0.532555 0.733000
vn 0.351275 0.936273 -0.000000
vn 0.423199 0.532555 -0.732999
vn 0.175638 0.936272 -0.304213
vn -0.175638 0.936272 -0.304214
vn -0.423197 0.532556 -0.733000
vn -0.846395 0.532555 -0.000000
usemtl (null)
s off
f 1/1/1 2/2/1 3/3/1
f 1/1/1 3/3/1 4/4/1
f 2/2/2 5/5/2 3/3/2
f 6/6/1 7/7/1 8/8/1
f 9/9/3 10/10/3 11/11/3
f 4/4/4 12/12/4 13/13/4
f 14/14/1 6/6/1 15/15/1
f 16/16/1 10/10/1 17/17/1
f 18/18/5 19/19/5 20/20/5
f 21/21/6 13/13/6 22/22/6
f 9/9/3 23/23/3 10/10/3
f 24/24/4 7/7/4 25/25/4
f 6/6/1 26/26/1 15/15/1
f 27/27/1 11/11/1 6/6/1
f 16/16/1 17/17/1 28/28/1
f 6/6/1 8/8/1 27/27/1
f 29/29/7 30/30/7 31/31/7 32/32/7
f 29/29/2 6/6/2 16/16/2 30/30/2
f 30/30/4 16/16/4 33/33/4 31/31/4
f 1/1/8 32/32/8 31/31/8 33/33/8
f 32/32/9 1/1/9 6/6/9 29/29/9
f 34/34/1 19/19/1 24/24/1 5/5/1
f 12/12/1 5/5/1 24/24/1 35/35/1
f 36/36/1 24/24/1 19/19/1 37/37/1
f 9/9/1 36/36/1 37/37/1 38/38/1
f 39/39/1 36/36/1 9/9/1 40/40/1
f 33/33/1 16/16/1 20/20/1 41/41/1
f 34/34/5 41/41/5 20/20/5 19/19/5
f 6/6/1 14/14/1 25/25/1 7/7/1
f 24/24/10 25/25/10 14/14/10 35/35/10
f 36/36/4 42/42/4 7/7/4 24/24/4
f 12/12/4 35/35/4 26/26/4 21/21/4
f 6/6/1 1/1/1 4/4/1 13/13/1
f 12/12/2 4/4/2 3/3/2 5/5/2
f 16/16/1 6/6/1 11/11/1 10/10/1
f 40/40/3 9/9/3 11/11/3 27/27/3
f 38/38/11 37/37/11 28/28/11 17/17/11
f 6/6/1 13/13/1 21/21/1 26/26/1
f 15/15/12 26/26/12 35/35/12 14/14/12
f 39/39/4 40/40/4 27/27/4 8/8/4
f 9/9/3 38/38/3 17/17/3 23/23/3
f 22/22/4 13/13/4 12/12/4 21/21/4
f 1/1/1 33/33/1 41/41/1 2/2/1
f 5/5/2 2/2/2 41/41/2 34/34/2
f 7/7/1 42/42/1 8/8/1
f 39/39/2 8/8/2 42/42/2 36/36/2
f 16/16/1 28/28/1 18/18/1 20/20/1
f 37/37/5 19/19/5 18/18/5 28/28/5
f 43/43/13 44/44/13 45/45/13 46/46/13
f 47/47/14 50/48/14 49/49/14 48/50/14
f 43/43/15 47/47/15 48/50/15 44/44/15
f 44/44/16 48/50/16 49/49/16 45/45/16
f 45/45/17 49/49/17 50/48/17 46/46/17
f 47/47/18 43/43/18 46/46/18 50/48/18
f 63/51/19 53/52/19 54/53/19 52/54/19
f 54/53/20 51/55/20 52/54/20
f 55/56/21 51/55/21 54/53/21
f 53/52/22 56/57/22 55/56/22 54/53/22
f 56/57/23 57/58/23 58/59/23 55/56/23
f 58/59/24 51/55/24 55/56/24
f 59/60/25 51/55/25 58/59/25
f 57/58/26 60/61/26 59/60/26 58/59/26
f 60/61/27 61/62/27 62/63/27 59/60/27
f 62/63/28 51/55/28 59/60/28
f 52/54/29 51/55/29 62/63/29
f 61/62/30 63/51/30 52/54/30 62/63/30
f 53/52/7 57/58/7 56/57/7
f 63/51/7 57/58/7 53/52/7
f 63/51/7 60/61/7 57/58/7
f 61/62/7 60/61/7 63/51/7
f 76/64/31 66/65/31 67/66/31 65/67/31
f 67/66/20 64/68/20 65/67/20
f 68/69/32 64/68/32 67/66/32
f 66/65/22 69/70/22 68/69/22 67/66/22
f 69/70/33 70/71/33 71/72/33 68/69/33
f 71/72/34 64/68/34 68/69/34
f 72/73/35 64/68/35 71/72/35
f 70/71/36 73/74/36 72/73/36 71/72/36
f 73/74/37 74/75/37 75/76/37 72/73/37
f 75/76/28 64/68/28 72/73/28
f 65/67/29 64/68/29 75/76/29
f 74/75/30 76/64/30 65/67/30 75/76/30
f 66/65/7 70/71/7 69/70/7
f 76/64/7 70/71/7 66/65/7
f 76/64/7 73/74/7 70/71/7
f 74/75/7 73/74/7 76/64/7
