# Blender3D v246 OBJ File: shapes.blend
# www.blender3d.org
o Curve.003_Mesh.002
v 0.207571 -0.095489 -0.104540
v 0.016606 -0.095489 -0.113047
v 0.008235 -0.095489 0.074841
v 0.201935 -0.095489 0.083471
v 0.325869 -0.095489 0.287159
v 0.552077 -0.095489 0.375811
v 0.777389 -0.095489 0.312955
v 0.920194 -0.095489 0.133964
v 0.714759 -0.095489 0.124812
v 0.647054 -0.095489 0.172894
v 0.562266 -0.095489 0.188117
v 0.428060 -0.095489 0.125905
v 0.377441 -0.095489 -0.012032
v 0.440126 -0.095489 -0.144921
v 0.579331 -0.095489 -0.194953
v 0.664528 -0.095489 -0.171116
v 0.728391 -0.095489 -0.114560
v 0.929725 -0.095489 -0.105590
v 0.802955 -0.095489 -0.294057
v 0.585549 -0.095489 -0.375516
v 0.347904 -0.095489 -0.304095
v 0.207571 0.095973 -0.104540
v 0.016606 0.095973 -0.113047
v 0.008235 0.095973 0.074841
v 0.201935 0.095973 0.083471
v 0.325869 0.095973 0.287159
v 0.552077 0.095973 0.375811
v 0.777389 0.095973 0.312955
v 0.920194 0.095973 0.133964
v 0.714759 0.095973 0.124812
v 0.647054 0.095973 0.172894
v 0.562266 0.095973 0.188117
v 0.428060 0.095973 0.125905
v 0.377441 0.095973 -0.012032
v 0.440125 0.095973 -0.144921
v 0.579331 0.095973 -0.194953
v 0.664528 0.095973 -0.171116
v 0.728391 0.095973 -0.114560
v 0.929725 0.095973 -0.105590
v 0.802955 0.095973 -0.294057
v 0.585549 0.095973 -0.375516
v 0.347904 0.095973 -0.304095
vt 0.127778 0.346842
vt 0.388572 0.373934
vt 0.361671 0.691493
vt 0.100876 0.664401
vt 0.000000 0.222088
vt 0.260794 0.249180
vt 0.104901 0.009994
vt 0.365696 0.037086
vt 0.234509 0.136534
vt 0.495303 0.163626
vt 0.433752 0.000000
vt 0.694546 0.027092
vt 0.631231 0.061538
vt 0.892026 0.088630
vt 0.739206 0.288733
vt 1.000000 0.315825
vt 0.725965 0.585458
vt 0.986759 0.612550
vt 0.588504 0.451252
vt 0.849299 0.478343
vt 0.573194 0.350939
vt 0.833988 0.378031
vt 0.527613 0.274695
vt 0.788408 0.301786
vt 0.404807 0.248740
vt 0.665602 0.275832
vt 0.291297 0.364588
vt 0.552092 0.391680
vt 0.253601 0.554455
vt 0.514396 0.581547
vt 0.313740 0.707115
vt 0.574534 0.734206
vt 0.382509 0.740776
vt 0.643304 0.767868
vt 0.456768 0.723546
vt 0.717562 0.750638
vt 0.591483 0.855073
vt 0.852278 0.882164
vt 0.399352 0.972908
vt 0.660146 1.000000
vt 0.211753 0.909657
vt 0.472548 0.936749
vn -0.817990 -0.000000 -0.575232
vn 0.044506 -0.000000 -0.999009
vn -0.999009 -0.000000 -0.044506
vn -0.044506 0.000000 0.999009
vn -0.854291 -0.000000 0.519794
vn -0.364883 0.000000 0.931053
vn 0.268712 0.000000 0.963220
vn 0.781693 0.000000 0.623664
vn -0.579007 -0.000000 -0.815322
vn -0.176723 0.000000 -0.984261
vn 0.420571 -0.000000 -0.907260
vn 0.938782 0.000000 -0.344512
vn 0.904428 0.000000 0.426627
vn 0.338228 0.000000 0.941064
vn -0.269435 -0.000000 0.963019
vn -0.662981 0.000000 0.748636
vn 0.829755 -0.000000 -0.558128
vn 0.350869 -0.000000 -0.936425
vn -0.287819 -0.000000 -0.957685
vn -0.000000 1.000000 -0.000000
vn 0.000000 -1.000000 0.000000
usemtl (null)
s off
f 1/1/1 22/2/1 42/3/1 21/4/1
f 22/2/2 1/1/2 2/5/2 23/6/2
f 3/7/3 24/8/3 23/6/3 2/5/3
f 4/9/4 25/10/4 24/8/4 3/7/4
f 5/11/5 26/12/5 25/10/5 4/9/5
f 6/13/6 27/14/6 26/12/6 5/11/6
f 7/15/7 28/16/7 27/14/7 6/13/7
f 8/17/8 29/18/8 28/16/8 7/15/8
f 9/19/2 30/20/2 29/18/2 8/17/2
f 10/21/9 31/22/9 30/20/9 9/19/9
f 11/23/10 32/24/10 31/22/10 10/21/10
f 12/25/11 33/26/11 32/24/11 11/23/11
f 13/27/12 34/28/12 33/26/12 12/25/12
f 14/29/13 35/30/13 34/28/13 13/27/13
f 15/31/14 36/32/14 35/30/14 14/29/14
f 16/33/15 37/34/15 36/32/15 15/31/15
f 17/35/16 38/36/16 37/34/16 16/33/16
f 18/37/4 39/38/4 38/36/4 17/35/4
f 19/39/17 40/40/17 39/38/17 18/37/17
f 20/41/18 41/42/18 40/40/18 19/39/18
f 21/4/19 42/3/19 41/42/19 20/41/19
f 42/3/20 40/40/20 41/42/20
f 42/3/20 39/38/20 40/40/20
f 36/32/20 39/38/20 42/3/20
f 22/2/20 36/32/20 42/3/20
f 37/34/20 39/38/20 36/32/20
f 22/2/20 35/30/20 36/32/20
f 38/36/20 39/38/20 37/34/20
f 22/2/20 34/28/20 35/30/20
f 23/6/20 34/28/20 22/2/20
f 24/8/20 34/28/20 23/6/20
f 25/10/20 33/26/20 34/28/20
f 24/8/20 25/10/20 34/28/20
f 26/12/20 33/26/20 25/10/20
f 30/20/20 28/16/20 29/18/20
f 31/22/20 28/16/20 30/20/20
f 26/12/20 32/24/20 33/26/20
f 32/24/20 28/16/20 31/22/20
f 26/12/20 28/16/20 32/24/20
f 27/14/20 28/16/20 26/12/20
f 21/4/21 20/41/21 19/39/21
f 21/4/21 19/39/21 18/37/21
f 15/31/21 21/4/21 18/37/21
f 1/1/21 21/4/21 15/31/21
f 16/33/21 15/31/21 18/37/21
f 1/1/21 15/31/21 14/29/21
f 17/35/21 16/33/21 18/37/21
f 1/1/21 14/29/21 13/27/21
f 2/5/21 1/1/21 13/27/21
f 3/7/21 2/5/21 13/27/21
f 4/9/21 13/27/21 12/25/21
f 3/7/21 13/27/21 4/9/21
f 5/11/21 4/9/21 12/25/21
f 9/19/21 8/17/21 7/15/21
f 10/21/21 9/19/21 7/15/21
f 5/11/21 12/25/21 11/23/21
f 11/23/21 10/21/21 7/15/21
f 5/11/21 11/23/21 7/15/21
f 6/13/21 5/11/21 7/15/21
